<svg xmlns="http://www.w3.org/2000/svg" x="0px" y="0px" width="50" height="50" viewBox="0 0 100 100">
<path d="M 85.589844 13 A 2.0002 2.0002 0 0 0 85.15625 13.037109 C 72.085863 15.561502 61.140959 19.641842 52.0625 25.095703 C 46.831496 19.149217 37.376234 16.917446 29.078125 15.853516 C 24.596157 15.278867 20.391374 15.097549 17.306641 15.058594 C 14.221907 15.019634 12.255859 15.123047 12.255859 15.123047 A 2.0002 2.0002 0 0 0 10.367188 17.263672 L 10.796875 23.269531 L 6.1640625 22.498047 A 1.0001 1.0001 0 0 0 5.9648438 22.484375 A 1.0001 1.0001 0 0 0 5 23.503906 C 5.4528114 45.374096 7.1579369 65.653465 10.316406 84.099609 A 1.0001 1.0001 0 0 0 11.619141 84.878906 C 19.317369 82.320817 30.324584 81.129992 45.412109 81.734375 C 45.499089 82.234744 45.641892 82.836467 46.003906 83.460938 C 46.799236 84.832872 48.601532 86.122382 51.642578 85.990234 C 54.653244 85.859407 56.556562 84.650956 57.615234 83.435547 C 58.157946 82.812487 58.485831 82.190606 58.683594 81.716797 C 70.092154 80.849124 81.873085 80.501292 90.697266 81.740234 A 1.0001 1.0001 0 0 0 91.826172 80.900391 C 94.836545 61.322429 95.942899 42.07654 93.953125 23.378906 A 1.0001 1.0001 0 0 0 92.792969 22.498047 L 87.8125 23.326172 C 87.743212 20.540926 87.655389 17.740558 87.533203 14.914062 A 2.0002 2.0002 0 0 0 85.589844 13 z M 83.564453 17.513672 C 84.270767 36.228261 83.812763 54.040785 82.574219 71.257812 C 81.008801 71.163689 79.480346 71.115491 77.974609 71.09375 L 78.943359 69.638672 A 1.0001 1.0001 0 0 0 78.09375 68.072266 A 1.0001 1.0001 0 0 0 77.279297 68.529297 L 75.566406 71.099609 C 74.234863 71.11431 72.92312 71.156133 71.632812 71.226562 L 73.615234 68.533203 A 1.0001 1.0001 0 0 0 72.835938 66.929688 A 1.0001 1.0001 0 0 0 72.003906 67.347656 L 69.015625 71.410156 C 67.898613 71.504986 66.791639 71.616086 65.701172 71.751953 L 67.339844 68.470703 A 1.0001 1.0001 0 0 0 66.400391 67.011719 A 1.0001 1.0001 0 0 0 65.550781 67.576172 L 63.431641 71.818359 A 1.0001163 1.0001163 0 0 0 63.345703 72.074219 C 61.999254 72.280984 60.667091 72.513745 59.353516 72.78125 L 60.978516 69.53125 A 1.0001 1.0001 0 0 0 60.039062 68.072266 A 1.0001 1.0001 0 0 0 59.189453 68.636719 L 56.832031 73.347656 C 55.764653 73.599217 54.705745 73.872086 53.654297 74.162109 C 53.636971 60.747684 53.526353 46.939192 52.597656 29.791016 A 1.0001 1.0001 0 0 0 52.548828 29.523438 A 2.0002 2.0002 0 0 0 52.941406 29.253906 C 53.804956 28.712987 54.689552 28.18761 55.59375 27.673828 C 54.110621 35.537006 55.529141 42.363298 57.130859 48.941406 A 1.0001 1.0001 0 0 0 58.822266 49.396484 L 62.902344 45.15625 L 67.304688 47.251953 A 1.0001 1.0001 0 0 0 68.691406 46.060547 C 66.392067 38.439458 65.203369 30.703806 67.121094 22.291016 C 72.13323 20.384541 77.601249 18.78316 83.564453 17.513672 z M 16.71875 19.058594 C 17.7007 19.056036 18.902955 19.079895 20.236328 19.130859 L 24.21875 26.101562 A 1.0007567 1.0007567 0 1 0 25.957031 25.109375 L 22.617188 19.265625 C 23.628657 19.330398 24.635825 19.394922 25.779297 19.507812 L 28.472656 23.998047 A 1.0001 1.0001 0 1 0 30.1875 22.96875 L 28.279297 19.789062 C 28.378106 19.801423 28.468798 19.809501 28.568359 19.822266 C 37.118174 20.918468 46.41151 23.718267 49.951172 28.859375 A 2.0002 2.0002 0 0 0 50.654297 29.505859 A 1.0001 1.0001 0 0 0 50.601562 29.900391 C 51.531739 47.075929 51.635905 60.884758 51.652344 74.345703 C 49.445274 74.019054 47.268446 73.751001 45.121094 73.541016 L 46.535156 71.845703 A 1.0001 1.0001 0 0 0 45.755859 70.193359 A 1.0001 1.0001 0 0 0 44.998047 70.564453 L 42.697266 73.326172 C 41.649906 73.244561 40.603041 73.166206 39.570312 73.113281 L 40.830078 70.591797 A 1.0001 1.0001 0 0 0 39.890625 69.132812 A 1.0001 1.0001 0 0 0 39.041016 69.697266 L 37.371094 73.039062 C 36.055058 72.997498 34.750607 72.97794 33.458984 72.984375 L 35.490234 69.597656 A 1.0001 1.0001 0 0 0 34.664062 68.072266 A 1.0001 1.0001 0 0 0 33.775391 68.570312 L 31.111328 73.009766 C 29.687268 73.04965 28.278223 73.118499 26.884766 73.21875 L 28.158203 69.400391 A 1.0001 1.0001 0 0 0 27.220703 68.070312 A 1.0001 1.0001 0 0 0 26.259766 50.242188 z M 77.03125 57.478516 A 1.0001 1.0001 0 0 0 76.960938 57.482422 C 71.697571 57.956636 65.607434 59.408501 58.699219 61.775391 A 1.0002902 1.0002902 0 1 0 59.347656 63.667969 C 66.151441 61.336859 72.103991 59.928395 77.140625 59.474609 A 1.0001 1.0001 0 0 0 77.03125 57.478516 z M 24.609375 58.689453 C 23.590147 58.671923 22.587232 58.672012 21.611328 58.691406 A 1.0001907 1.0001907 0 1 0 21.650391 60.691406 C 29.241156 60.540557 38.780185 61.6404 43.804688 63.650391 A 1.00047 1.00047 0 1 0 44.548828 61.792969 C 39.666768 59.83996 31.743971 58.812165 24.609375 58.689453 z"></path>
</svg>